<svg xmlns="http://www.w3.org/2000/svg" width="459.13" height="76.244" viewBox="0 0 459.13 76.244">
  <path id="Path_314" data-name="Path 314" d="M21.658-59.584h-.294L9.6-16.562C7.742-9.6,5.1-7.35,3.038-6.272.882-5.194-.784-5.292-.784-2.94-.784-.1,2.744,0,4.7,0h11.27c1.96,0,5.1.1,5.1-2.646,0-1.96-1.372-2.548-2.94-3.234-3.332-1.47-4.7-3.136-3.136-9.114L24.206-48.51ZM36.652-11.466c.882,3.822.49,4.508-2.058,5.978-1.274.686-1.862,1.176-1.862,2.744C32.732-.2,35.574,0,37.534,0h24.4c1.862,0,5.39.1,5.39-2.548,0-1.764-1.078-2.45-2.45-3.038-2.744-1.176-2.842-3.038-3.43-5.782L46.746-73.3H25.088l-1.274,5.292,9.9,43.316H21.756l-1.372,5.684H34.692Zm64.974-48.706c0-3.528.784-7.546,4.7-8.918v-5.684c-17.052.392-30.184,17.052-30.184,38.122C76.146-15.68,89.278.98,106.33,1.47V-4.214c-3.92-1.372-4.7-5.488-4.7-9.016Zm9.114-8.918c7.938.392,15.386,6.37,18.424,18.914.49,2.058,1.176,3.92,3.724,3.92,3.038,0,3.038-3.038,3.038-3.528V-71.638c0-.49.2-3.136-2.744-3.136-3.136,0-2.842,3.626-5.782,3.626-1.078,0-6.37-2.744-16.66-3.626Zm0,70.56A39.508,39.508,0,0,0,135.926-8.918v-19.4c0-.49-.294-1.666,1.764-2.94a3.208,3.208,0,0,0,1.764-2.94c0-3.234-2.94-2.94-3.43-2.94H112.6c-.49,0-3.92.1-3.92,2.744,0,1.666.98,2.548,2.548,2.94,3.92.686,4.018,1.176,4.018,3.332v17.64c0,1.666-.2,5-4.508,6.272Zm58.9-61.054h-.294l-11.76,43.022c-1.862,6.958-4.508,9.212-6.566,10.29-2.156,1.078-3.822.98-3.822,3.332C147.2-.1,150.724,0,152.684,0h11.27c1.96,0,5.1.1,5.1-2.646,0-1.96-1.372-2.548-2.94-3.234-3.332-1.47-4.7-3.136-3.136-9.114l9.212-33.516Zm14.994,48.118c.882,3.822.49,4.508-2.058,5.978-1.274.686-1.862,1.176-1.862,2.744,0,2.548,2.842,2.744,4.8,2.744h24.4c1.862,0,5.39.1,5.39-2.548,0-1.764-1.078-2.45-2.45-3.038-2.744-1.176-2.842-3.038-3.43-5.782L194.726-73.3H173.068l-1.274,5.292,9.9,43.316H169.736l-1.372,5.684h14.308Zm49.588-4.018c-1.568,12.25-7.84,8.428-7.84,12.642C226.38.2,230.4,0,231.476,0h11.172c1.078,0,5.1.2,5.1-2.842,0-4.214-6.272-.392-7.84-12.642V-32.34l-5.488-16.17h-.2Zm40.474,4.508c0,3.626.1,4.214-3.332,5.292a2.718,2.718,0,0,0-2.156,2.646C269.206-.2,272.44,0,272.832,0h27.734c.392,0,3.626-.2,3.626-3.038a2.718,2.718,0,0,0-2.156-2.646c-3.43-1.078-3.332-1.666-3.332-5.292V-62.328c0-3.626-.1-4.214,3.332-5.292a2.718,2.718,0,0,0,2.156-2.646c0-2.842-3.234-3.038-3.626-3.038H274.694Zm-48.706-59.29c0,2.352,2.646,2.548,3.822,2.646,1.666.1,2.058,1.274,2.94,2.744a20.118,20.118,0,0,1,1.764,4.214L255,0h2.842l12.446-41.65V-59.486h-.2l-4.41,16.268h-.2L255-73.3H230.1C228.928-73.3,225.988-73.3,225.988-70.266ZM335.65-59.584h-.294L323.6-16.562c-1.862,6.958-4.508,9.212-6.566,10.29-2.156,1.078-3.822.98-3.822,3.332C313.208-.1,316.736,0,318.7,0h11.27c1.96,0,5.1.1,5.1-2.646,0-1.96-1.372-2.548-2.94-3.234-3.332-1.47-4.7-3.136-3.136-9.114L338.2-48.51Zm14.994,48.118c.882,3.822.49,4.508-2.058,5.978-1.274.686-1.862,1.176-1.862,2.744,0,2.548,2.842,2.744,4.8,2.744h24.4c1.862,0,5.39.1,5.39-2.548,0-1.764-1.078-2.45-2.45-3.038-2.744-1.176-2.842-3.038-3.43-5.782L360.738-73.3H339.08l-1.274,5.292L347.7-24.7H335.748l-1.372,5.684h14.308Zm48.608-4.018c-1.568,12.25-7.84,8.428-7.84,12.642C391.412.2,395.43,0,396.508,0H407.68c1.078,0,5.1.2,5.1-2.842,0-4.214-6.272-.392-7.84-12.642v-29.6l-5.488-9.8h-.2ZM444.626-41.65l5.488,9.9h.2V-55.566c0-14.014,8.036-10.29,8.036-14.8,0-2.744-3.234-2.94-4.214-2.94H440.8c-.98,0-4.214.2-4.214,2.94,0,4.508,8.036.784,8.036,14.8ZM421.792-73.3H396.606c-2.058.1-5,.1-5,3.038,0,2.156,1.274,2.548,2.94,3.136,3.234,1.078,3.724,2.548,5.292,5.292L435.708,0h14.6V-23.716Z" transform="translate(0.784 74.774)" fill="#fff"/>
</svg>
